<svg id="mailing" xmlns="http://www.w3.org/2000/svg" width="134" height="134" viewBox="0 0 134 134">
  <g id="Group_8567" data-name="Group 8567">
    <path id="Path_10833" data-name="Path 10833" d="M134,206.661v57.07a13.165,13.165,0,0,1-13.158,13.141H13.158A13.165,13.165,0,0,1,0,263.731v-57.07a13.033,13.033,0,0,1,1.578-6.232,13.168,13.168,0,0,1,11.581-6.909H120.838a13.17,13.17,0,0,1,11.489,6.744A13.017,13.017,0,0,1,134,206.661Z" transform="translate(0 -142.872)" fill="#ffe67b"/>
    <path id="Path_10834" data-name="Path 10834" d="M323.295,206.661v57.07a13.165,13.165,0,0,1-13.158,13.141H256.4V193.52h53.732a13.17,13.17,0,0,1,11.489,6.744A13.02,13.02,0,0,1,323.295,206.661Z" transform="translate(-189.298 -142.872)" fill="#fcc454"/>
    <path id="Path_10835" data-name="Path 10835" d="M134,305.621v16.412a13.165,13.165,0,0,1-13.158,13.141H13.158A13.165,13.165,0,0,1,0,322.033V306.359l33.815-33.83,33.291-.021,32.856-.018Z" transform="translate(0 -201.174)" fill="#fcc454"/>
    <path id="Path_10836" data-name="Path 10836" d="M323.295,305.621v16.412a13.165,13.165,0,0,1-13.158,13.141H256.4V272.508l32.856-.018Z" transform="translate(-189.298 -201.174)" fill="#f7a521"/>
    <g id="Group_8565" data-name="Group 8565" transform="translate(1.578 50.648)">
      <line id="Line_25" data-name="Line 25" x1="0.001" transform="translate(65.527 44.944)" fill="none" stroke="#d9efff" stroke-linecap="round" stroke-linejoin="round"/>
      <line id="Line_26" data-name="Line 26" x1="0.003" transform="translate(65.527 44.945)" fill="none" stroke="#d9efff" stroke-linecap="round" stroke-linejoin="round"/>
      <path id="Path_10837" data-name="Path 10837" d="M136.78,200.264l-61.14,37a7.815,7.815,0,0,1-4.08,1.2h0a8.558,8.558,0,0,1-4.282-1.191L6.03,200.429a13.167,13.167,0,0,1,11.581-6.909H125.29A13.171,13.171,0,0,1,136.78,200.264Z" transform="translate(-6.03 -193.52)" fill="#ff8c7d"/>
    </g>
    <g id="Group_8566" data-name="Group 8566" transform="translate(0.009 0)">
      <path id="Path_10838" data-name="Path 10838" d="M226.971,22.633a3.933,3.933,0,0,1-5.477-.947l-3.949-5.59V38.52a3.931,3.931,0,0,1-7.862,0V16.1l-3.947,5.59a3.929,3.929,0,0,1-6.426-4.523L210.167,1.785A4.22,4.22,0,0,1,213.5,0h.026a.089.089,0,0,1,.026,0h.115a.089.089,0,0,1,.026,0h.024a4.221,4.221,0,0,1,3.339,1.782l10.858,15.379A3.92,3.92,0,0,1,226.971,22.633Z" transform="translate(-146.625 0)" fill="#7c20bf"/>
      <path id="Path_10839" data-name="Path 10839" d="M15.42,48.283l6.76,1.164a3.926,3.926,0,1,0,1.335-7.738L4.968,38.517A4.214,4.214,0,0,0,.1,43.38L3.287,61.935a3.931,3.931,0,0,0,7.748-1.329L9.873,53.848,25.718,69.7a3.928,3.928,0,0,0,5.564-5.547Z" transform="translate(-0.035 -28.391)" fill="#7c20bf" opacity="0.65"/>
      <path id="Path_10840" data-name="Path 10840" d="M419.378,39.589a4.227,4.227,0,0,0-3.7-1.17l-18.547,3.192a3.926,3.926,0,1,0,1.335,7.737l6.76-1.164-15.862,15.87a3.928,3.928,0,0,0,5.564,5.547l15.844-15.852-1.162,6.758a3.926,3.926,0,0,0,3.209,4.534,3.978,3.978,0,0,0,.67.057,3.93,3.93,0,0,0,3.87-3.262l3.192-18.559A4.215,4.215,0,0,0,419.378,39.589Z" transform="translate(-286.624 -28.319)" fill="#7c20bf" opacity="0.65"/>
    </g>
    <path id="Path_10841" data-name="Path 10841" d="M255.993,42.446V0h.058a.089.089,0,0,1,.026,0h.024a4.221,4.221,0,0,1,3.339,1.782L270.3,17.164a3.928,3.928,0,0,1-6.423,4.523l-3.949-5.59V38.52A3.93,3.93,0,0,1,255.993,42.446Z" transform="translate(-188.995)" fill="#5f4870" opacity="0"/>
  </g>
  <path id="Path_10842" data-name="Path 10842" d="M321.623,200.264l-61.14,37a7.815,7.815,0,0,1-4.08,1.2h0V193.52h53.734A13.171,13.171,0,0,1,321.623,200.264Z" transform="translate(-189.295 -142.872)" fill="#ed5454"/>
</svg>
