<svg xmlns="http://www.w3.org/2000/svg" width="161.349" height="48.996" viewBox="0 0 161.349 48.996">
  <path id="TradExpress" d="M5.43,38.359V21.084L.26,21.09V18.406l15.791-.027v2.694l-5.179.006v17.3Zm10.229.028V25.113H21.3a11.261,11.261,0,0,1,1.229.063,7.8,7.8,0,0,1,1.072.19,5.5,5.5,0,0,1,.915.316,4.1,4.1,0,0,1,.759.443,3.362,3.362,0,0,1,.6.564,3.141,3.141,0,0,1,.425.679,3.544,3.544,0,0,1,.255.795,4.645,4.645,0,0,1,.085.91,5.121,5.121,0,0,1-.038.637,3.971,3.971,0,0,1-.114.575,3.228,3.228,0,0,1-.19.513,2.831,2.831,0,0,1-.266.451,2.74,2.74,0,0,1-.341.389,2.944,2.944,0,0,1-.417.327,3.466,3.466,0,0,1-.493.265,4.354,4.354,0,0,1-.569.2l3.8,5.993-4.944-.014-2.935-6.269V31.9a4.714,4.714,0,0,0,.565-.117,3.328,3.328,0,0,0,.484-.172,2.433,2.433,0,0,0,.4-.228,1.933,1.933,0,0,0,.322-.283,1.87,1.87,0,0,0,.246-.344,2.2,2.2,0,0,0,.176-.411,2.88,2.88,0,0,0,.105-.477,3.989,3.989,0,0,0,.035-.544,3.808,3.808,0,0,0-.037-.549,2.705,2.705,0,0,0-.112-.478,2.055,2.055,0,0,0-.187-.407,1.753,1.753,0,0,0-.6-.6,2.05,2.05,0,0,0-.406-.187,2.7,2.7,0,0,0-.477-.112,3.8,3.8,0,0,0-.548-.038h-.157l-.065,0-.056,0-.05,0-.048.005-.047.006-.045.007V38.4Zm12.779.035,3.386-10.849q.125-.405.258-.749t.276-.625a4.343,4.343,0,0,1,.293-.5,2.592,2.592,0,0,1,.31-.377,2.044,2.044,0,0,1,.347-.276,2.117,2.117,0,0,1,.4-.2,2.5,2.5,0,0,1,.459-.118,3.224,3.224,0,0,1,.515-.04,3.151,3.151,0,0,1,.479.035,2.369,2.369,0,0,1,.424.1,1.932,1.932,0,0,1,.369.174,1.785,1.785,0,0,1,.314.243,2.2,2.2,0,0,1,.281.341,4,4,0,0,1,.27.467q.132.265.259.593t.248.719l3.517,11.092-4.458-.012-.72-2.437L31.339,36l-.689,2.431Zm3.444-4.271,3.244.006L33.569,28.37Zm19.032-7.19a6.821,6.821,0,0,0-1,.083,4.553,4.553,0,0,0-.852.22,3.25,3.25,0,0,0-.7.356,2.693,2.693,0,0,0-.548.493,3.033,3.033,0,0,0-.414.652,4.552,4.552,0,0,0-.3.834,7.2,7.2,0,0,0-.177,1.016,12.139,12.139,0,0,0,0,2.387,7.143,7.143,0,0,0,.176,1.009,4.5,4.5,0,0,0,.293.827,2.99,2.99,0,0,0,.41.646,2.655,2.655,0,0,0,.546.488,3.26,3.26,0,0,0,.7.353,4.63,4.63,0,0,0,.855.219,6.992,6.992,0,0,0,1.01.085Zm4.279-10.084V38.5l-5.521-.015a13.406,13.406,0,0,1-1.71-.108,9.475,9.475,0,0,1-1.493-.313,6.992,6.992,0,0,1-1.276-.519,5.666,5.666,0,0,1-1.059-.724,5.121,5.121,0,0,1-.832-.92,5.315,5.315,0,0,1-.594-1.106A6.468,6.468,0,0,1,42.35,33.5a8.76,8.76,0,0,1-.119-1.48,9.141,9.141,0,0,1,.129-1.573,6.827,6.827,0,0,1,.387-1.379,5.7,5.7,0,0,1,.645-1.184,5.593,5.593,0,0,1,.9-.989,6.181,6.181,0,0,1,1.146-.781,7.54,7.54,0,0,1,1.374-.558,10.115,10.115,0,0,1,1.6-.335,14.205,14.205,0,0,1,1.83-.112h.666v-8.22ZM60.285,38.51V11.785l16.5-.052v3.611l-9.124.021v7.788l8.649-.005v3.611H67.664v8.169l9.619.019v3.611Zm19.585.054L84.024,32.6,79.9,25.1h4.77l1.968,3.891L89.1,25.1h2.679l-3.973,5.794L92.083,38.6l-4.77-.013-2.149-4.139-2.552,4.126ZM98.525,26.971v9.77a7.211,7.211,0,0,0,1.032-.081,4.762,4.762,0,0,0,.874-.218,3.333,3.333,0,0,0,.717-.354,2.69,2.69,0,0,0,.559-.491,3.005,3.005,0,0,0,.42-.652,4.506,4.506,0,0,0,.3-.836,7.142,7.142,0,0,0,.18-1.02,12.139,12.139,0,0,0,0-2.417,7.208,7.208,0,0,0-.182-1.028,4.576,4.576,0,0,0-.3-.844,3.07,3.07,0,0,0-.424-.66,2.75,2.75,0,0,0-.562-.5,3.342,3.342,0,0,0-.716-.361,4.7,4.7,0,0,0-.871-.223A7.043,7.043,0,0,0,98.525,26.971Zm0,17.36-4.392-.018V25.1H99.2a14.645,14.645,0,0,1,1.89.115,10.339,10.339,0,0,1,1.65.346,7.628,7.628,0,0,1,1.41.577,6.2,6.2,0,0,1,1.17.808,5.69,5.69,0,0,1,.918,1.029,5.974,5.974,0,0,1,.656,1.239,7.33,7.33,0,0,1,.394,1.449,9.962,9.962,0,0,1,.131,1.659,9.132,9.132,0,0,1-.118,1.507,6.463,6.463,0,0,1-.353,1.3,5.054,5.054,0,0,1-.587,1.092,4.67,4.67,0,0,1-.822.884,5.385,5.385,0,0,1-1.06.682,7.205,7.205,0,0,1-1.3.485,10.4,10.4,0,0,1-1.543.289,15.318,15.318,0,0,1-1.784.093H99.6l-.221,0-.187,0-.153,0-.134,0-.13-.006-.127-.007-.123-.007Zm11.843-5.683V25.094h5.884a11.989,11.989,0,0,1,1.281.064,8.294,8.294,0,0,1,1.118.194,5.813,5.813,0,0,1,.955.323,4.3,4.3,0,0,1,.791.452,3.477,3.477,0,0,1,.621.576,3.2,3.2,0,0,1,.443.694,3.567,3.567,0,0,1,.266.811,4.649,4.649,0,0,1,.089.929,5.118,5.118,0,0,1-.04.65,3.977,3.977,0,0,1-.119.587,3.254,3.254,0,0,1-.2.523,2.878,2.878,0,0,1-.277.46,2.819,2.819,0,0,1-.356.4,3.063,3.063,0,0,1-.435.333,3.64,3.64,0,0,1-.514.27,4.6,4.6,0,0,1-.593.207l3.967,6.12-5.155-.014-3.06-6.4v-.245a5.008,5.008,0,0,0,.589-.119,3.519,3.519,0,0,0,.5-.176,2.553,2.553,0,0,0,.42-.232,2,2,0,0,0,.335-.289,1.911,1.911,0,0,0,.257-.351,2.222,2.222,0,0,0,.183-.419,2.889,2.889,0,0,0,.11-.487,3.989,3.989,0,0,0,.037-.555,3.81,3.81,0,0,0-.039-.561,2.716,2.716,0,0,0-.117-.488,2.079,2.079,0,0,0-.2-.415,1.811,1.811,0,0,0-.273-.343,1.836,1.836,0,0,0-.349-.268,2.158,2.158,0,0,0-.423-.191,2.863,2.863,0,0,0-.5-.115,4.04,4.04,0,0,0-.572-.038h-.164l-.068,0-.058,0-.052,0-.05.005-.048.006-.047.007V38.659Zm17.82.049a5.694,5.694,0,0,1-.73-.046,3.612,3.612,0,0,1-.614-.133,2.356,2.356,0,0,1-.5-.219,1.723,1.723,0,0,1-.383-.306,1.817,1.817,0,0,1-.284-.413,2.764,2.764,0,0,1-.2-.54,4.485,4.485,0,0,1-.122-.668,7.229,7.229,0,0,1-.041-.795V28.2a7.226,7.226,0,0,1,.041-.795,4.479,4.479,0,0,1,.122-.667,2.756,2.756,0,0,1,.2-.54,1.811,1.811,0,0,1,.284-.413,1.717,1.717,0,0,1,.383-.305,2.349,2.349,0,0,1,.5-.218,3.607,3.607,0,0,1,.614-.131,5.69,5.69,0,0,1,.73-.044H134.5v2.043h-3.358a3.577,3.577,0,0,0-.386.019,2.056,2.056,0,0,0-.316.057,1.146,1.146,0,0,0-.247.1.679.679,0,0,0-.177.134.738.738,0,0,0-.124.191,1.37,1.37,0,0,0-.089.266,2.55,2.55,0,0,0-.053.34q-.018.189-.018.415v2.225l4.261,0v2.043l-4.261-.006v2.271q0,.223.017.408a2.489,2.489,0,0,0,.052.333,1.313,1.313,0,0,0,.086.258.693.693,0,0,0,.121.183.649.649,0,0,0,.174.128,1.169,1.169,0,0,0,.247.092,2.184,2.184,0,0,0,.32.055,3.877,3.877,0,0,0,.393.019l3.573.008v2.043Zm9.554.026V36.679l3.629.008q.316,0,.583-.02a4.37,4.37,0,0,0,.488-.064,2.474,2.474,0,0,0,.393-.107,1.364,1.364,0,0,0,.3-.151,1.042,1.042,0,0,0,.219-.2,1.108,1.108,0,0,0,.156-.261,1.452,1.452,0,0,0,.094-.32,2.146,2.146,0,0,0,.031-.378,1.023,1.023,0,0,0-.128-.5,1.515,1.515,0,0,0-.384-.443,3.14,3.14,0,0,0-.64-.39,6.529,6.529,0,0,0-.9-.336l-.291-.088-.259-.078-.226-.069-.193-.059q-.5-.166-.928-.343a8.35,8.35,0,0,1-.769-.363,5.1,5.1,0,0,1-.611-.384,3.037,3.037,0,0,1-.452-.405,2.619,2.619,0,0,1-.326-.453,2.89,2.89,0,0,1-.233-.528,3.558,3.558,0,0,1-.14-.6,4.707,4.707,0,0,1-.047-.677,5.474,5.474,0,0,1,.088-1,4.115,4.115,0,0,1,.264-.878,3.524,3.524,0,0,1,.439-.751,3.6,3.6,0,0,1,.615-.624,4.214,4.214,0,0,1,.783-.491,5.412,5.412,0,0,1,.942-.351,7.494,7.494,0,0,1,1.1-.211,10.688,10.688,0,0,1,1.26-.07h3.56v2.048H143.08q-.189,0-.357.017a2.6,2.6,0,0,0-.317.05,1.9,1.9,0,0,0-.276.084,1.442,1.442,0,0,0-.236.118,1.071,1.071,0,0,0-.189.148.828.828,0,0,0-.135.174.78.78,0,0,0-.081.2.915.915,0,0,0-.027.225.8.8,0,0,0,.112.4,1.313,1.313,0,0,0,.335.368,2.9,2.9,0,0,0,.558.332,6.163,6.163,0,0,0,.782.3l.188.065.163.055.138.045.113.036q.547.177,1.006.367a8.541,8.541,0,0,1,.829.392,5.133,5.133,0,0,1,.652.417,3.027,3.027,0,0,1,.474.442,2.781,2.781,0,0,1,.337.5,3.309,3.309,0,0,1,.241.593,4.334,4.334,0,0,1,.145.686,5.961,5.961,0,0,1,.048.778,6.144,6.144,0,0,1-.088,1.064,4.754,4.754,0,0,1-.265.943,4.081,4.081,0,0,1-1.059,1.524,4.37,4.37,0,0,1-.772.561,4.88,4.88,0,0,1-.906.4,6.1,6.1,0,0,1-1.04.238,8.16,8.16,0,0,1-1.173.077Zm12.342.034v-2.05l3.649.008q.317,0,.587-.02a4.4,4.4,0,0,0,.491-.064,2.5,2.5,0,0,0,.4-.108,1.373,1.373,0,0,0,.3-.151,1.047,1.047,0,0,0,.22-.2,1.11,1.11,0,0,0,.157-.262,1.453,1.453,0,0,0,.094-.321,2.145,2.145,0,0,0,.031-.379,1.023,1.023,0,0,0-.129-.5,1.521,1.521,0,0,0-.386-.444,3.158,3.158,0,0,0-.644-.391,6.576,6.576,0,0,0-.9-.337l-.293-.088-.26-.079-.227-.069-.194-.059q-.507-.167-.933-.344a8.4,8.4,0,0,1-.773-.364,5.123,5.123,0,0,1-.614-.385,3.049,3.049,0,0,1-.454-.406,2.624,2.624,0,0,1-.328-.454,2.892,2.892,0,0,1-.234-.529,3.561,3.561,0,0,1-.14-.6,4.707,4.707,0,0,1-.047-.679,5.474,5.474,0,0,1,.088-1.007,4.118,4.118,0,0,1,.265-.88,3.531,3.531,0,0,1,.442-.753,3.614,3.614,0,0,1,.619-.626,4.239,4.239,0,0,1,.787-.492,5.449,5.449,0,0,1,.947-.352,7.554,7.554,0,0,1,1.107-.211,10.773,10.773,0,0,1,1.267-.071h3.579v2.054h-3.1q-.19,0-.359.017a2.617,2.617,0,0,0-.318.051,1.909,1.909,0,0,0-.278.084,1.452,1.452,0,0,0-.237.118,1.076,1.076,0,0,0-.19.148.831.831,0,0,0-.135.174.781.781,0,0,0-.081.2.914.914,0,0,0-.027.226.8.8,0,0,0,.112.406,1.318,1.318,0,0,0,.337.369,2.915,2.915,0,0,0,.561.333,6.206,6.206,0,0,0,.786.3l.189.065.164.055.138.045.113.036q.55.178,1.011.368a8.6,8.6,0,0,1,.833.393,5.164,5.164,0,0,1,.655.419,3.041,3.041,0,0,1,.477.444,2.789,2.789,0,0,1,.339.5,3.317,3.317,0,0,1,.242.595,4.334,4.334,0,0,1,.145.688,5.962,5.962,0,0,1,.048.78,6.142,6.142,0,0,1-.089,1.067,4.756,4.756,0,0,1-.266.946,4.091,4.091,0,0,1-1.064,1.528,4.393,4.393,0,0,1-.777.562,4.914,4.914,0,0,1-.911.4,6.142,6.142,0,0,1-1.045.239,8.226,8.226,0,0,1-1.179.077Z" fill="#fff" style="mix-blend-mode: screen;isolation: isolate"/>
</svg>
